<?xml version="1.0" standalone="no"?>
<!DOCTYPE svg PUBLIC "-//W3C//DTD SVG 20010904//EN"
 "http://www.w3.org/TR/2001/REC-SVG-20010904/DTD/svg10.dtd">
<svg version="1.0" xmlns="http://www.w3.org/2000/svg"
 width="500.000000pt" height="500.000000pt" viewBox="0 0 500.000000 500.000000"
 preserveAspectRatio="xMidYMid meet">

<g transform="translate(0.000000,500.000000) scale(0.100000,-0.100000)"
fill="#000000" stroke="none">
<path d="M2420 3233 c-338 -34 -424 -49 -456 -77 -20 -16 -168 -315 -160 -323
1 -1 20 1 44 4 36 5 42 9 42 29 0 13 9 48 20 78 46 123 209 217 440 255 197
32 497 34 758 5 106 -12 47 5 -71 21 -108 14 -509 19 -617 8z"/>
<path d="M3183 3193 c9 -2 23 -2 30 0 6 3 -1 5 -18 5 -16 0 -22 -2 -12 -5z"/>
<path d="M2710 3169 c451 -17 623 -59 693 -172 34 -54 27 -79 -31 -105 -33
-15 -83 -17 -467 -14 -580 4 -786 -13 -1030 -84 -91 -26 -253 -98 -290 -128
-11 -9 7 -4 40 12 271 133 858 199 1530 173 154 -6 301 -14 328 -17 33 -5 47
-3 47 5 0 47 -127 259 -168 279 -22 12 -204 39 -347 52 -60 5 -202 9 -315 8
l-205 -1 215 -8z"/>
<path d="M1620 2937 c-22 -8 -40 -23 -49 -41 -21 -44 -5 -60 65 -67 32 -3 76
-12 96 -19 30 -11 41 -11 50 -2 9 9 5 12 -18 12 -17 0 -46 11 -65 25 -22 17
-42 24 -55 21 -13 -4 -27 0 -34 10 -20 23 2 38 57 38 44 1 48 -1 64 -33 l16
-35 5 40 c3 21 1 45 -5 52 -12 15 -81 15 -127 -1z"/>
<path d="M3587 2933 c-3 -5 -2 -28 2 -52 l6 -44 13 36 c14 40 43 54 84 42 54
-17 59 -55 7 -55 -17 0 -42 -9 -58 -21 -15 -11 -42 -21 -60 -21 -27 -1 -30 -3
-18 -15 11 -12 18 -11 43 2 16 8 49 15 74 15 90 1 121 47 64 98 -20 18 -37 22
-89 22 -35 0 -66 -3 -68 -7z"/>
<path d="M2525 2814 c-138 -11 -452 -61 -442 -70 2 -2 68 5 148 16 237 31 483
43 779 39 151 -3 244 -2 205 2 -85 9 -620 19 -690 13z"/>
<path d="M3305 2780 c-16 -5 -85 -13 -152 -20 -136 -12 -254 -39 -261 -57 -2
-7 11 -21 29 -32 l33 -20 -553 0 c-304 0 -555 -2 -558 -4 -6 -7 -73 -187 -73
-198 0 -5 58 -10 129 -11 l129 -3 -72 -199 c-55 -151 -79 -205 -100 -223 -26
-22 -32 -23 -225 -23 l-198 0 -33 -92 c-18 -51 -35 -99 -38 -105 -3 -10 50
-13 247 -13 l251 0 128 64 c70 35 140 78 155 94 21 22 53 96 115 269 l87 238
138 3 c75 1 137 1 137 -1 0 -2 -54 -152 -119 -333 l-120 -329 377 -3 377 -2
120 57 c152 74 186 103 222 196 45 117 34 178 -39 208 l-30 12 36 22 c56 34
77 56 102 110 45 95 25 193 -46 230 -18 9 -30 18 -27 21 13 13 217 74 248 74
50 0 93 -37 118 -103 11 -29 20 -43 20 -32 1 33 -44 117 -87 163 -43 46 -49
46 -112 6 -61 -40 -183 -74 -303 -85 -122 -12 -183 -8 -264 16 -100 30 -61 52
135 79 62 9 128 16 147 16 18 0 37 5 40 10 7 12 -66 12 -110 0z m-81 -346 c35
-14 8 -101 -39 -122 -23 -11 -305 -18 -305 -8 0 4 22 66 39 109 l11 27 139 0
c77 0 146 -3 155 -6z m-70 -310 c32 -12 8 -102 -33 -124 -22 -11 -351 -14
-351 -2 0 4 10 35 22 70 l23 62 162 0 c89 0 168 -3 177 -6z"/>
<path d="M2038 2733 c6 -2 18 -2 25 0 6 3 1 5 -13 5 -14 0 -19 -2 -12 -5z"/>
<path d="M1963 1718 c-14 -19 -63 -106 -63 -112 0 -4 261 -5 581 -4 l581 3 35
63 35 62 -580 0 c-452 0 -582 -3 -589 -12z m251 -7 c4 -5 2 -20 -3 -34 -8 -21
-16 -24 -50 -23 -36 1 -40 3 -35 21 4 11 11 26 16 33 12 14 64 16 72 3z m190
3 c21 -8 21 -24 0 -24 -11 0 -14 -6 -9 -20 4 -14 2 -20 -9 -20 -22 0 -27 15
-16 44 10 28 11 29 34 20z m-127 -24 c-3 -13 0 -20 9 -20 8 0 14 6 14 14 0 16
18 31 26 23 3 -2 2 -16 -2 -31 -5 -22 -11 -26 -45 -26 -44 0 -43 -1 -29 34 11
31 35 35 27 6z m246 13 c3 -5 1 -18 -4 -30 -6 -18 -16 -23 -44 -23 -37 0 -42
8 -25 41 11 19 64 27 73 12z m107 -3 c0 -5 -11 -10 -25 -10 -31 0 -33 -15 -2
-25 21 -7 21 -8 -7 -12 -37 -6 -51 8 -37 36 12 22 71 31 71 11z m110 6 c0 -3
-4 -16 -10 -30 -7 -20 -17 -26 -38 -26 -37 0 -43 7 -30 36 9 18 19 24 45 24
18 0 33 -2 33 -4z m90 -6 c0 -5 -7 -10 -16 -10 -9 0 -18 -9 -21 -20 -3 -11
-12 -20 -19 -20 -17 0 -17 1 -4 34 7 19 17 26 35 26 14 0 25 -4 25 -10z m94
-12 c-9 -29 -22 -38 -56 -38 -22 0 -26 4 -21 18 11 31 25 42 55 42 26 0 29 -3
22 -22z"/>
<path d="M2160 1690 c0 -5 7 -10 15 -10 8 0 15 5 15 10 0 6 -7 10 -15 10 -8 0
-15 -4 -15 -10z"/>
<path d="M2470 1680 c0 -5 4 -10 9 -10 6 0 13 5 16 10 3 6 -1 10 -9 10 -9 0
-16 -4 -16 -10z"/>
<path d="M3113 1671 c-18 -33 -33 -62 -33 -65 0 -3 12 -6 28 -6 23 0 33 10 64
65 l37 65 -32 0 c-29 0 -35 -6 -64 -59z"/>
<path d="M3193 1671 c-39 -71 -39 -73 -11 -69 14 2 33 22 54 58 40 66 40 70
12 70 -18 0 -31 -14 -55 -59z"/>
<path d="M3287 1708 c-58 -95 -65 -117 -34 -105 13 5 77 105 77 121 0 15 -31
4 -43 -16z"/>
<path d="M3330 1669 c-37 -69 -35 -92 2 -27 42 71 49 88 40 88 -5 0 -24 -27
-42 -61z"/>
<path d="M3385 1680 c-9 -16 -13 -30 -11 -30 3 0 12 14 21 30 9 17 13 30 11
30 -3 0 -12 -13 -21 -30z"/>
<path d="M3355 1629 c-4 -6 -5 -12 -2 -15 2 -3 7 2 10 11 7 17 1 20 -8 4z"/>
<path d="M1866 1548 c-9 -12 -16 -26 -16 -30 0 -5 272 -8 605 -8 l605 0 0 30
0 30 -589 0 -590 0 -15 -22z"/>
<path d="M3070 1540 c0 -28 3 -30 35 -30 32 0 35 2 35 30 0 28 -3 30 -35 30
-32 0 -35 -2 -35 -30z"/>
<path d="M3150 1540 c0 -25 4 -30 25 -30 21 0 25 5 25 30 0 25 -4 30 -25 30
-21 0 -25 -5 -25 -30z"/>
<path d="M3230 1540 c0 -20 5 -30 15 -30 10 0 15 10 15 30 0 20 -5 30 -15 30
-10 0 -15 -10 -15 -30z"/>
<path d="M3290 1540 c0 -16 5 -30 10 -30 6 0 10 14 10 30 0 17 -4 30 -10 30
-5 0 -10 -13 -10 -30z"/>
<path d="M3342 1540 c0 -19 2 -27 5 -17 2 9 2 25 0 35 -3 9 -5 1 -5 -18z"/>
</g>
</svg>
